<!DOCTYPE svg PUBLIC "-//W3C//DTD SVG 1.1//EN" "http://www.w3.org/Graphics/SVG/1.1/DTD/svg11.dtd">

<!-- Uploaded to: SVG Repo, www.svgrepo.com, Transformed by: SVG Repo Mixer Tools -->
<svg fill="#0a49ae" width="18px" height="18px" viewBox="0 0 19.00 19.00" xmlns="http://www.w3.org/2000/svg" class="cf-icon-svg" stroke="#0a49ae" stroke-width="0.00019">

<g id="SVGRepo_bgCarrier" stroke-width="0"/>

<g id="SVGRepo_tracerCarrier" stroke-linecap="round" stroke-linejoin="round"/>

<g id="SVGRepo_iconCarrier">

<path d="M14.267 3.793v7.996a.477.477 0 0 1-.475.475h-2.356v2.472a.476.476 0 0 1-.475.475H1.208a.476.476 0 0 1-.475-.475V6.74a.476.476 0 0 1 .475-.475h2.356V3.793a.476.476 0 0 1 .475-.475h9.753a.476.476 0 0 1 .475.475zm-3.94 8.471H4.04a.477.477 0 0 1-.475-.475V8.626H1.84v5.476h8.487zm2.832-6.585H4.672v5.476h8.487z"/>

</g>

</svg>
